<?xml version="1.0" encoding="UTF-8"?>
<!--Generator: Apple Native CoreSVG 175.5-->
<!DOCTYPE svg
PUBLIC "-//W3C//DTD SVG 1.1//EN"
       "http://www.w3.org/Graphics/SVG/1.1/DTD/svg11.dtd">
<svg version="1.1" xmlns="http://www.w3.org/2000/svg" xmlns:xlink="http://www.w3.org/1999/xlink" width="3300" height="2200">
 <!--glyph: "uni100185.medium", point size: 100.0, font version: "18.0d12e2", template writer version: "101"-->
 <g id="Notes">
  <rect height="2200" id="artboard" style="fill:white;opacity:1" width="3300" x="0" y="0"/>
  <line style="fill:none;stroke:black;opacity:1;stroke-width:0.5;" x1="263" x2="3036" y1="292" y2="292"/>
  <text style="stroke:none;fill:black;font-family:sans-serif;font-size:13;font-weight:bold;" transform="matrix(1 0 0 1 263 322)">Weight/Scale Variations</text>
  <text style="stroke:none;fill:black;font-family:sans-serif;font-size:13;text-anchor:middle;" transform="matrix(1 0 0 1 559.711 322)">Ultralight</text>
  <text style="stroke:none;fill:black;font-family:sans-serif;font-size:13;text-anchor:middle;" transform="matrix(1 0 0 1 856.422 322)">Thin</text>
  <text style="stroke:none;fill:black;font-family:sans-serif;font-size:13;text-anchor:middle;" transform="matrix(1 0 0 1 1153.13 322)">Light</text>
  <text style="stroke:none;fill:black;font-family:sans-serif;font-size:13;text-anchor:middle;" transform="matrix(1 0 0 1 1449.84 322)">Regular</text>
  <text style="stroke:none;fill:black;font-family:sans-serif;font-size:13;text-anchor:middle;" transform="matrix(1 0 0 1 1746.56 322)">Medium</text>
  <text style="stroke:none;fill:black;font-family:sans-serif;font-size:13;text-anchor:middle;" transform="matrix(1 0 0 1 2043.27 322)">Semibold</text>
  <text style="stroke:none;fill:black;font-family:sans-serif;font-size:13;text-anchor:middle;" transform="matrix(1 0 0 1 2339.98 322)">Bold</text>
  <text style="stroke:none;fill:black;font-family:sans-serif;font-size:13;text-anchor:middle;" transform="matrix(1 0 0 1 2636.69 322)">Heavy</text>
  <text style="stroke:none;fill:black;font-family:sans-serif;font-size:13;text-anchor:middle;" transform="matrix(1 0 0 1 2933.4 322)">Black</text>
  <line style="fill:none;stroke:black;opacity:1;stroke-width:0.5;" x1="263" x2="3036" y1="1903" y2="1903"/>
  <g transform="matrix(1 0 0 1 263 1933)">
   <path d="M9.24805 0.830078C13.5547 0.830078 17.1387-2.74414 17.1387-7.05078C17.1387-11.3574 13.5449-14.9316 9.23828-14.9316C4.94141-14.9316 1.36719-11.3574 1.36719-7.05078C1.36719-2.74414 4.95117 0.830078 9.24805 0.830078ZM9.24805-0.654297C5.70312-0.654297 2.87109-3.49609 2.87109-7.05078C2.87109-10.6055 5.69336-13.4473 9.23828-13.4473C12.793-13.4473 15.6445-10.6055 15.6445-7.05078C15.6445-3.49609 12.8027-0.654297 9.24805-0.654297ZM5.6543-7.05078C5.6543-6.62109 5.95703-6.32812 6.40625-6.32812L8.50586-6.32812L8.50586-4.20898C8.50586-3.76953 8.79883-3.4668 9.22852-3.4668C9.67773-3.4668 9.9707-3.76953 9.9707-4.20898L9.9707-6.32812L12.0898-6.32812C12.5293-6.32812 12.832-6.62109 12.832-7.05078C12.832-7.49023 12.5293-7.79297 12.0898-7.79297L9.9707-7.79297L9.9707-9.90234C9.9707-10.3516 9.67773-10.6543 9.22852-10.6543C8.79883-10.6543 8.50586-10.3516 8.50586-9.90234L8.50586-7.79297L6.40625-7.79297C5.95703-7.79297 5.6543-7.49023 5.6543-7.05078Z"/>
  </g>
  <g transform="matrix(1 0 0 1 281.867 1933)">
   <path d="M11.709 2.91016C17.1582 2.91016 21.6699-1.61133 21.6699-7.05078C21.6699-12.5 17.1484-17.0117 11.6992-17.0117C6.25977-17.0117 1.74805-12.5 1.74805-7.05078C1.74805-1.61133 6.26953 2.91016 11.709 2.91016ZM11.709 1.25C7.09961 1.25 3.41797-2.44141 3.41797-7.05078C3.41797-11.6602 7.08984-15.3516 11.6992-15.3516C16.3086-15.3516 20.0098-11.6602 20.0098-7.05078C20.0098-2.44141 16.3184 1.25 11.709 1.25ZM7.17773-7.05078C7.17773-6.57227 7.50977-6.25 8.00781-6.25L10.8789-6.25L10.8789-3.36914C10.8789-2.88086 11.2109-2.53906 11.6895-2.53906C12.1777-2.53906 12.5195-2.87109 12.5195-3.36914L12.5195-6.25L15.4004-6.25C15.8887-6.25 16.2305-6.57227 16.2305-7.05078C16.2305-7.53906 15.8887-7.88086 15.4004-7.88086L12.5195-7.88086L12.5195-10.752C12.5195-11.25 12.1777-11.5918 11.6895-11.5918C11.2109-11.5918 10.8789-11.25 10.8789-10.752L10.8789-7.88086L8.00781-7.88086C7.50977-7.88086 7.17773-7.53906 7.17773-7.05078Z"/>
  </g>
  <g transform="matrix(1 0 0 1 305.646 1933)">
   <path d="M14.9707 5.66406C21.9336 5.66406 27.6953-0.0976562 27.6953-7.05078C27.6953-14.0137 21.9238-19.7754 14.9609-19.7754C8.00781-19.7754 2.25586-14.0137 2.25586-7.05078C2.25586-0.0976562 8.01758 5.66406 14.9707 5.66406ZM14.9707 3.84766C8.93555 3.84766 4.08203-1.01562 4.08203-7.05078C4.08203-13.0957 8.92578-17.9492 14.9609-17.9492C21.0059-17.9492 25.8691-13.0957 25.8691-7.05078C25.8691-1.01562 21.0156 3.84766 14.9707 3.84766ZM9.19922-7.05078C9.19922-6.5332 9.57031-6.17188 10.1172-6.17188L14.0625-6.17188L14.0625-2.2168C14.0625-1.67969 14.4336-1.29883 14.9512-1.29883C15.4883-1.29883 15.8594-1.66992 15.8594-2.2168L15.8594-6.17188L19.8145-6.17188C20.3516-6.17188 20.7324-6.5332 20.7324-7.05078C20.7324-7.59766 20.3613-7.96875 19.8145-7.96875L15.8594-7.96875L15.8594-11.9141C15.8594-12.4609 15.4883-12.8418 14.9512-12.8418C14.4336-12.8418 14.0625-12.4609 14.0625-11.9141L14.0625-7.96875L10.1172-7.96875C9.57031-7.96875 9.19922-7.59766 9.19922-7.05078Z"/>
  </g>
  <text style="stroke:none;fill:black;font-family:sans-serif;font-size:13;font-weight:bold;" transform="matrix(1 0 0 1 263 1953)">Design Variations</text>
  <text style="stroke:none;fill:black;font-family:sans-serif;font-size:13;" transform="matrix(1 0 0 1 263 1971)">Symbols are supported in up to nine weights and three scales.</text>
  <text style="stroke:none;fill:black;font-family:sans-serif;font-size:13;" transform="matrix(1 0 0 1 263 1989)">For optimal layout with text and other symbols, vertically align</text>
  <text style="stroke:none;fill:black;font-family:sans-serif;font-size:13;" transform="matrix(1 0 0 1 263 2007)">symbols with the adjacent text.</text>
  <line style="fill:none;stroke:#00AEEF;stroke-width:0.5;opacity:1.0;" x1="776" x2="776" y1="1919" y2="1933"/>
  <g transform="matrix(1 0 0 1 776 1933)">
   <path d="M3.31055 0.15625C3.82812 0.15625 4.08203-0.0390625 4.26758-0.585938L5.52734-4.0332L11.2891-4.0332L12.5488-0.585938C12.7344-0.0390625 12.9883 0.15625 13.4961 0.15625C14.0137 0.15625 14.3457-0.15625 14.3457-0.644531C14.3457-0.810547 14.3164-0.966797 14.2383-1.17188L9.6582-13.3691C9.43359-13.9648 9.0332-14.2676 8.4082-14.2676C7.80273-14.2676 7.39258-13.9746 7.17773-13.3789L2.59766-1.16211C2.51953-0.957031 2.49023-0.800781 2.49023-0.634766C2.49023-0.146484 2.80273 0.15625 3.31055 0.15625ZM6.00586-5.51758L8.37891-12.0898L8.42773-12.0898L10.8008-5.51758Z"/>
  </g>
  <line style="fill:none;stroke:#00AEEF;stroke-width:0.5;opacity:1.0;" x1="793.197" x2="793.197" y1="1919" y2="1933"/>
  <text style="stroke:none;fill:black;font-family:sans-serif;font-size:13;font-weight:bold;" transform="matrix(1 0 0 1 776 1953)">Margins</text>
  <text style="stroke:none;fill:black;font-family:sans-serif;font-size:13;" transform="matrix(1 0 0 1 776 1971)">Leading and trailing margins on the left and right side of each symbol</text>
  <text style="stroke:none;fill:black;font-family:sans-serif;font-size:13;" transform="matrix(1 0 0 1 776 1989)">can be adjusted by modifying the x-location of the margin guidelines.</text>
  <text style="stroke:none;fill:black;font-family:sans-serif;font-size:13;" transform="matrix(1 0 0 1 776 2007)">Modifications are automatically applied proportionally to all</text>
  <text style="stroke:none;fill:black;font-family:sans-serif;font-size:13;" transform="matrix(1 0 0 1 776 2025)">scales and weights.</text>
  <g transform="matrix(1 0 0 1 1289 1933)">
   <path d="M2.8418 1.86523L4.54102 3.57422C5.40039 4.44336 6.38672 4.38477 7.31445 3.35938L18.0078-8.42773L17.041-9.4043L6.42578 2.27539C6.07422 2.67578 5.74219 2.77344 5.27344 2.30469L4.10156 1.14258C3.63281 0.683594 3.74023 0.341797 4.14062-0.0195312L15.6152-10.8203L14.6387-11.7871L3.04688-0.898438C2.06055 0.0195312 1.98242 0.996094 2.8418 1.86523ZM9.25781-16.3281C8.83789-15.918 8.80859-15.3418 9.04297-14.9512C9.27734-14.5898 9.73633-14.3555 10.3809-14.5215C11.8457-14.8633 13.3691-14.9219 14.7949-13.9844L14.209-12.5293C13.8672-11.6992 14.043-11.1133 14.5801-10.5664L16.875-8.25195C17.3633-7.76367 17.7734-7.74414 18.3398-7.8418L19.4043-8.03711L20.0684-7.36328L20.0293-6.80664C19.9902-6.30859 20.1172-5.92773 20.6055-5.44922L21.3672-4.70703C21.8457-4.22852 22.4609-4.19922 22.9297-4.66797L25.8398-7.58789C26.3086-8.05664 26.2891-8.65234 25.8105-9.13086L25.0391-9.89258C24.5605-10.3711 24.1895-10.5273 23.7109-10.4883L23.1348-10.4395L22.4902-11.0742L22.7344-12.1973C22.8613-12.7637 22.7051-13.2031 22.1191-13.7891L19.9219-15.9766C16.582-19.2969 12.1484-19.2188 9.25781-16.3281ZM10.752-15.957C13.1836-17.7344 16.4746-17.4316 18.7012-15.2051L21.1328-12.793C21.3672-12.5586 21.4062-12.373 21.3379-12.0312L21.0156-10.5469L22.5195-9.0625L23.5059-9.12109C23.7598-9.13086 23.8379-9.11133 24.0332-8.91602L24.6094-8.33984L22.168-5.89844L21.5918-6.47461C21.3965-6.66992 21.3672-6.74805 21.377-7.01172L21.4453-7.98828L19.9512-9.47266L18.4277-9.21875C18.1055-9.15039 17.959-9.17969 17.7148-9.41406L15.7129-11.416C15.459-11.6504 15.4297-11.8164 15.5859-12.1875L16.4648-14.2773C14.9023-15.7324 12.8711-16.3574 10.8398-15.7617C10.6836-15.7227 10.625-15.8496 10.752-15.957Z"/>
  </g>
  <text style="stroke:none;fill:black;font-family:sans-serif;font-size:13;font-weight:bold;" transform="matrix(1 0 0 1 1289 1953)">Exporting</text>
  <text style="stroke:none;fill:black;font-family:sans-serif;font-size:13;" transform="matrix(1 0 0 1 1289 1971)">Symbols should be outlined when exporting to ensure the</text>
  <text style="stroke:none;fill:black;font-family:sans-serif;font-size:13;" transform="matrix(1 0 0 1 1289 1989)">design is preserved when submitting to Xcode.</text>
  <text id="template-version" style="stroke:none;fill:black;font-family:sans-serif;font-size:13;text-anchor:end;" transform="matrix(1 0 0 1 3036 1933)">Template v.4.0</text>
  <text style="stroke:none;fill:black;font-family:sans-serif;font-size:13;text-anchor:end;" transform="matrix(1 0 0 1 3036 1951)">Requires Xcode 14 or greater</text>
  <text id="descriptive-name" style="stroke:none;fill:black;font-family:sans-serif;font-size:13;text-anchor:end;" transform="matrix(1 0 0 1 3036 1969)">Generated from checkmark</text>
  <text style="stroke:none;fill:black;font-family:sans-serif;font-size:13;text-anchor:end;" transform="matrix(1 0 0 1 3036 1987)">Typeset at 100 points</text>
  <text style="stroke:none;fill:black;font-family:sans-serif;font-size:13;" transform="matrix(1 0 0 1 263 726)">Small</text>
  <text style="stroke:none;fill:black;font-family:sans-serif;font-size:13;" transform="matrix(1 0 0 1 263 1156)">Medium</text>
  <text style="stroke:none;fill:black;font-family:sans-serif;font-size:13;" transform="matrix(1 0 0 1 263 1586)">Large</text>
 </g>
 <g id="Guides">
  <g id="H-reference" style="fill:#27AAE1;stroke:none;" transform="matrix(1 0 0 1 339 696)">
   <path d="M0.993654 0L3.63775 0L29.3281-67.1323L30.0303-67.1323L30.0303-70.459L28.1226-70.459ZM11.6885-24.4799L46.9815-24.4799L46.2315-26.7285L12.4385-26.7285ZM55.1196 0L57.7637 0L30.6382-70.459L29.4326-70.459L29.4326-67.1323Z"/>
  </g>
  <line id="Baseline-S" style="fill:none;stroke:#27AAE1;opacity:1;stroke-width:0.5;" x1="263" x2="3036" y1="696" y2="696"/>
  <line id="Capline-S" style="fill:none;stroke:#27AAE1;opacity:1;stroke-width:0.5;" x1="263" x2="3036" y1="625.541" y2="625.541"/>
  <g id="H-reference" style="fill:#27AAE1;stroke:none;" transform="matrix(1 0 0 1 339 1126)">
   <path d="M0.993654 0L3.63775 0L29.3281-67.1323L30.0303-67.1323L30.0303-70.459L28.1226-70.459ZM11.6885-24.4799L46.9815-24.4799L46.2315-26.7285L12.4385-26.7285ZM55.1196 0L57.7637 0L30.6382-70.459L29.4326-70.459L29.4326-67.1323Z"/>
  </g>
  <line id="Baseline-M" style="fill:none;stroke:#27AAE1;opacity:1;stroke-width:0.5;" x1="263" x2="3036" y1="1126" y2="1126"/>
  <line id="Capline-M" style="fill:none;stroke:#27AAE1;opacity:1;stroke-width:0.5;" x1="263" x2="3036" y1="1055.54" y2="1055.54"/>
  <g id="H-reference" style="fill:#27AAE1;stroke:none;" transform="matrix(1 0 0 1 339 1556)">
   <path d="M0.993654 0L3.63775 0L29.3281-67.1323L30.0303-67.1323L30.0303-70.459L28.1226-70.459ZM11.6885-24.4799L46.9815-24.4799L46.2315-26.7285L12.4385-26.7285ZM55.1196 0L57.7637 0L30.6382-70.459L29.4326-70.459L29.4326-67.1323Z"/>
  </g>
  <line id="Baseline-L" style="fill:none;stroke:#27AAE1;opacity:1;stroke-width:0.5;" x1="263" x2="3036" y1="1556" y2="1556"/>
  <line id="Capline-L" style="fill:none;stroke:#27AAE1;opacity:1;stroke-width:0.5;" x1="263" x2="3036" y1="1485.54" y2="1485.54"/>
  <line id="left-margin-Regular-M" style="fill:none;stroke:#00AEEF;stroke-width:0.5;opacity:1.0;" x1="1395.33" x2="1395.33" y1="1030.79" y2="1150.12"/>
  <line id="right-margin-Regular-M" style="fill:none;stroke:#00AEEF;stroke-width:0.5;opacity:1.0;" x1="1504.36" x2="1504.36" y1="1030.79" y2="1150.12"/>
 </g>
 <g id="Symbols">
  <g id="Black-L" transform="matrix(1 0 0 1 2856.81 1556)">
   <path d="M64.0628 22.894C69.3219 22.894 73.418 20.9595 76.217 16.7998L134.278-70.5775C136.272-73.5218 137.099-76.474 137.099-79.1342C137.099-86.4753 131.4-91.9624 123.804-91.9624C118.666-91.9624 115.382-90.132 112.233-85.191L63.8031-9.19681L39.5173-38.2096C36.7559-41.432 33.6052-42.9327 29.2875-42.9327C21.6907-42.9327 16.084-37.4052 16.084-29.9849C16.084-26.6214 17.033-23.8588 19.9044-20.5913L52.3681 17.5758C55.5281 21.2539 59.2697 22.894 64.0628 22.894Z"/>
  </g>
  <g id="Heavy-L" transform="matrix(1 0 0 1 2561.67 1556)">
   <path d="M62.2724 22.1856C66.8802 22.1856 70.4711 20.4508 72.9425 16.7638L131.443-72.209C133.228-74.8626 133.95-77.4321 133.95-79.7785C133.95-86.1385 129.096-90.8442 122.527-90.8442C118.055-90.8442 115.236-89.2603 112.503-84.9573L62.0122-5.47967L36.5028-36.6347C34.0459-39.5675 31.3011-40.9138 27.4935-40.9138C20.9192-40.9138 16.084-36.1534 16.084-29.7186C16.084-26.8255 16.947-24.3629 19.4069-21.5289L51.8965 17.3281C54.7388 20.6852 58.016 22.1856 62.2724 22.1856Z"/>
  </g>
  <g id="Bold-L" transform="matrix(1 0 0 1 2266.91 1556)">
   <path d="M59.9699 21.1978C63.7634 21.1978 66.7169 19.7239 68.7737 16.6432L127.939-74.3044C129.455-76.582 130.046-78.6752 130.046-80.6223C130.046-85.7831 126.2-89.5504 120.885-89.5504C117.234-89.5504 114.978-88.2664 112.759-84.7549L59.7171-1.11541L32.7908-34.5116C30.7253-37.0535 28.4801-38.2003 25.3101-38.2003C19.9812-38.2003 16.084-34.3703 16.084-29.1422C16.084-26.8182 16.832-24.7394 18.7996-22.4358L51.2753 16.9761C53.7032 19.8963 56.3967 21.1978 59.9699 21.1978Z"/>
  </g>
  <g id="Semibold-L" transform="matrix(1 0 0 1 1971.55 1556)">
   <path d="M58.3825 20.5168C61.6147 20.5168 64.1288 19.2227 65.8997 16.5601L125.523-75.749C126.854-77.7674 127.356-79.5321 127.356-81.204C127.356-85.5381 124.204-88.6585 119.752-88.6585C116.669-88.6585 114.799-87.5812 112.935-84.6153L58.1349 1.89329L30.2318-33.048C28.4361-35.3204 26.5353-36.3296 23.8048-36.3296C19.3346-36.3296 16.084-33.141 16.084-28.7449C16.084-26.8132 16.7527-24.999 18.381-23.0611L50.847 16.7333C52.9893 19.3525 55.2804 20.5168 58.3825 20.5168Z"/>
  </g>
  <g id="Medium-L" transform="matrix(1 0 0 1 1675.86 1556)">
   <path d="M57.1789 20.0005C59.9855 20.0005 62.1663 18.8427 63.7205 16.497L123.691-76.8443C124.882-78.6661 125.315-80.1819 125.315-81.6451C125.315-85.3524 122.691-87.9822 118.894-87.9822C116.24-87.9822 114.664-87.0617 113.069-84.5094L56.9351 4.17461L28.2914-31.9382C26.7003-34.0063 25.0606-34.9112 22.6635-34.9112C18.8443-34.9112 16.084-32.2089 16.084-28.4437C16.084-26.8094 16.6926-25.1959 18.0635-23.5351L50.5222 16.5493C52.448 18.9402 54.434 20.0005 57.1789 20.0005Z"/>
  </g>
  <g id="Regular-L" transform="matrix(1 0 0 1 1380.48 1556)">
   <path d="M55.609 19.327C57.8604 19.327 59.6066 18.347 60.8781 16.4148L121.302-78.273C122.309-79.8384 122.654-81.0294 122.654-82.2204C122.654-85.11 120.716-87.1001 117.774-87.1001C115.681-87.1001 114.487-86.384 113.244-84.3714L55.3703 7.15024L25.7605-30.4906C24.4363-32.2922 23.1372-33.0611 21.1748-33.0611C18.2047-33.0611 16.084-30.9931 16.084-28.0507C16.084-26.8044 16.6142-25.4526 17.6494-24.1535L50.0987 16.3093C51.742 18.4024 53.33 19.327 55.609 19.327Z"/>
  </g>
  <g id="Light-L" transform="matrix(1 0 0 1 1085.12 1556)">
   <path d="M53.4714 17.9338C55.1121 17.9338 56.3431 17.221 57.2709 15.8422L118.935-80.2006C119.695-81.4034 119.944-82.2509 119.944-83.0983C119.944-85.2627 118.445-86.7948 116.247-86.7948C114.708-86.7948 113.8-86.2504 112.919-84.7912L53.29 8.61981L23.3366-27.9141C22.3751-29.2385 21.4004-29.8166 19.9151-29.8166C17.6703-29.8166 16.084-28.2639 16.084-26.0659C16.084-25.1249 16.4806-24.1166 17.2868-23.142L49.4307 15.7749C50.6541 17.3145 51.7841 17.9338 53.4714 17.9338Z"/>
  </g>
  <g id="Thin-L" transform="matrix(1 0 0 1 790.201 1556)">
   <path d="M50.6444 16.0911C51.4773 16.0911 52.0267 15.7317 52.5002 15.085L115.805-82.75C116.237-83.4732 116.359-83.8664 116.359-84.2595C116.359-85.4647 115.441-86.3909 114.228-86.3909C113.42-86.3909 112.892-86.0737 112.49-85.3466L50.5386 10.5634L20.1309-24.5064C19.6489-25.1999 19.1034-25.5255 18.2492-25.5255C16.9636-25.5255 16.084-24.6543 16.084-23.4407C16.084-22.9036 16.3039-22.3497 16.8072-21.8042L48.5472 15.0681C49.2153 15.8757 49.7395 16.0911 50.6444 16.0911Z"/>
  </g>
  <g id="Ultralight-L" transform="matrix(1 0 0 1 494.407 1556)">
   <path d="M49.1963 15.1473C49.6155 15.1473 49.8159 14.9689 50.0567 14.6971L114.202-84.0558C114.465-84.5334 114.523-84.6938 114.523-84.8542C114.523-85.5681 113.903-86.1841 113.194-86.1841C112.761-86.1841 112.426-85.9832 112.27-85.631L49.1294 11.5589L18.489-22.7611C18.2526-23.1313 17.9269-23.3276 17.3959-23.3276C16.6016-23.3276 16.084-22.8055 16.084-22.0961C16.084-21.7659 16.2134-21.4447 16.5616-21.1189L48.0947 14.7061C48.4784 15.1388 48.6923 15.1473 49.1963 15.1473Z"/>
  </g>
  <g id="Black-M" transform="matrix(1 0 0 1 2872.89 1126)">
   <path d="M50.8812 10.2212C55.4327 10.2212 58.9705 8.58711 61.374 5.03313L106.148-61.4741C107.839-63.9559 108.556-66.5255 108.556-68.8096C108.556-75.242 103.473-80.1025 96.8067-80.1025C92.3288-80.1025 89.4226-78.4959 86.6762-74.1945L50.6882-18.0564L32.878-38.5427C30.5261-41.2235 27.7803-42.4931 24.0613-42.4931C17.3954-42.4931 12.4609-37.6212 12.4609-31.1263C12.4609-28.1576 13.252-25.8059 15.7991-22.9459L40.8866 5.8215C43.5509 8.87203 46.7867 10.2212 50.8812 10.2212Z"/>
  </g>
  <g id="Heavy-M" transform="matrix(1 0 0 1 2577.59 1126)">
   <path d="M49.3282 9.65727C53.2993 9.65727 56.3908 8.19371 58.5057 5.05075L103.594-62.8912C105.103-65.1222 105.727-67.3494 105.727-69.3584C105.727-74.8986 101.43-79.0376 95.6993-79.0376C91.8211-79.0376 89.3441-77.656 86.9696-73.9273L49.1294-14.5582L30.1548-37.2409C28.067-39.6825 25.6881-40.8187 22.4238-40.8187C16.6905-40.8187 12.4609-36.6492 12.4609-31.049C12.4609-28.512 13.1802-26.4219 15.3463-23.9557L40.4872 5.62864C42.8796 8.41637 45.7038 9.65727 49.3282 9.65727Z"/>
  </g>
  <g id="Bold-M" transform="matrix(1 0 0 1 2282.47 1126)">
   <path d="M47.5909 9.02642C50.9128 9.02642 53.505 7.75364 55.2972 5.07046L100.737-64.4764C102.043-66.427 102.563-68.271 102.563-69.9723C102.563-74.5145 99.1456-77.8462 94.4606-77.8462C91.2531-77.8462 89.2562-76.7165 87.2978-73.6285L47.3857-10.645L27.1085-35.7845C25.3162-37.9587 23.3477-38.9457 20.592-38.9457C15.9019-38.9457 12.4609-35.5619 12.4609-30.9626C12.4609-28.9084 13.0999-27.1111 14.8398-25.0854L40.0404 5.41289C42.1287 7.90665 44.4923 9.02642 47.5909 9.02642Z"/>
  </g>
  <g id="Semibold-M" transform="matrix(1 0 0 1 1986.85 1126)">
   <path d="M46.3933 8.59152C49.2676 8.59152 51.5156 7.45025 53.0852 5.08405L98.7675-65.5692C99.934-67.3265 100.381-68.9064 100.381-70.3956C100.381-74.2497 97.5704-77.0249 93.6066-77.0249C90.8616-77.0249 89.1956-76.0688 87.5241-73.4225L46.1836-7.94723L25.0084-34.7805C23.4198-36.7704 21.7342-37.6545 19.3292-37.6545C15.3583-37.6545 12.4609-34.8123 12.4609-30.903C12.4609-29.1817 13.0446-27.5861 14.4905-25.8642L39.7324 5.26415C41.6111 7.55525 43.6572 8.59152 46.3933 8.59152Z"/>
  </g>
  <g id="Medium-M" transform="matrix(1 0 0 1 1690.96 1126)">
   <path d="M45.4852 8.26176C48.0201 8.26176 50.0071 7.22021 51.408 5.09435L97.2741-66.3978C98.3345-68.0085 98.727-69.3882 98.727-70.7165C98.727-74.0489 96.3761-76.4022 92.9591-76.4022C90.5647-76.4022 89.1496-75.5777 87.6957-73.2662L45.2721-5.90168L23.416-34.0193C21.9819-35.8693 20.5108-36.6755 18.3717-36.6755C14.9461-36.6755 12.4609-34.244 12.4609-30.8578C12.4609-29.389 13.0026-27.9464 14.2258-26.4547L39.4988 5.15138C41.2186 7.2888 43.0239 8.26176 45.4852 8.26176Z"/>
  </g>
  <g id="Regular-M" transform="matrix(1 0 0 1 1395.33 1126)">
   <path d="M44.3007 7.83163C46.393 7.83163 48.0395 6.92016 49.2203 5.10779L95.3262-67.4786C96.2483-68.8981 96.5693-70.0166 96.5693-71.1351C96.5693-73.787 94.8183-75.5899 92.1145-75.5899C90.1775-75.5899 89.0897-74.9372 87.9195-73.0625L44.0831-3.23357L21.3389-33.0263C20.1064-34.694 18.9151-35.3984 17.1228-35.3984C14.4085-35.3984 12.4609-33.5026 12.4609-30.7989C12.4609-29.6593 12.9478-28.4162 13.8804-27.2249L39.1942 5.00428C40.7066 6.94127 42.1979 7.83163 44.3007 7.83163Z"/>
  </g>
  <g id="Light-M" transform="matrix(1 0 0 1 1099.83 1126)">
   <path d="M42.3843 6.58253C43.929 6.58253 45.1136 5.91062 45.9863 4.59446L93.2045-69.2068C93.9041-70.3012 94.1396-71.1117 94.1396-71.9222C94.1396-73.9239 92.7821-75.3161 90.7456-75.3161C89.3049-75.3161 88.4737-74.8174 87.6286-73.4389L42.218-1.91602L19.1658-30.7163C18.2584-31.9562 17.358-32.4896 15.9935-32.4896C13.9294-32.4896 12.4609-31.0558 12.4609-29.0193C12.4609-28.1535 12.828-27.2184 13.5553-26.318L38.5953 4.52517C39.7313 5.96594 40.8119 6.58253 42.3843 6.58253Z"/>
  </g>
  <g id="Thin-M" transform="matrix(1 0 0 1 804.729 1126)">
   <path d="M39.8497 4.9305C40.6702 4.9305 41.2437 4.57541 41.7092 3.91554L90.3983-71.4925C90.8037-72.1569 90.926-72.56 90.926-72.9632C90.926-74.105 90.089-74.954 88.9352-74.954C88.1507-74.954 87.659-74.659 87.2439-73.9368L39.7513-0.173468L16.2917-27.6612C15.8143-28.3353 15.2986-28.6424 14.4998-28.6424C13.2957-28.6424 12.4609-27.8196 12.4609-26.6658C12.4609-26.162 12.6696-25.6343 13.1253-25.1186L37.8032 3.89152C38.4413 4.676 38.9788 4.9305 39.8497 4.9305Z"/>
  </g>
  <g id="Ultralight-M" transform="matrix(1 0 0 1 508.841 1126)">
   <path d="M38.5514 4.08433C39.001 4.08433 39.2616 3.89153 39.5184 3.5678L88.961-72.6633C89.2157-73.1074 89.2801-73.3019 89.2801-73.4964C89.2801-74.1977 88.7096-74.7685 88.0079-74.7685C87.5595-74.7685 87.2417-74.5778 87.0468-74.1918L38.4879 0.719061L14.8197-26.0964C14.5624-26.4807 14.2438-26.6718 13.7348-26.6718C12.9712-26.6718 12.4609-26.162 12.4609-25.4603C12.4609-25.142 12.5885-24.8229 12.9051-24.5042L37.3975 3.56696C37.7806 4.0153 38.0399 4.08433 38.5514 4.08433Z"/>
  </g>
  <g id="Black-S" transform="matrix(1 0 0 1 2885.62 696)">
   <path d="M40.2344 0.488281C43.9453 0.488281 46.8262-0.830078 48.7793-3.71094L83.8379-55.4688C85.2051-57.4707 85.791-59.5703 85.791-61.4258C85.791-66.6992 81.5918-70.7031 76.123-70.7031C72.4609-70.7031 70.0684-69.3848 67.8223-65.8691L40.0879-22.7539L26.4648-38.0859C24.5605-40.2344 22.3145-41.2598 19.2871-41.2598C13.8184-41.2598 9.76562-37.2559 9.76562-31.9336C9.76562-29.4922 10.4004-27.5879 12.5-25.2441L32.1289-3.02734C34.2773-0.585938 36.9141 0.488281 40.2344 0.488281Z"/>
  </g>
  <g id="Heavy-S" transform="matrix(1 0 0 1 2589.97 696)">
   <path d="M39.1511 0.165596C42.4356 0.165596 44.9938-1.03752 46.7395-3.63027L81.9248-56.4599C83.1652-58.2889 83.682-60.135 83.682-61.7946C83.682-66.3881 80.1051-69.8273 75.3509-69.8273C72.1383-69.8273 70.0799-68.6818 68.1104-65.5926L38.9931-19.9304L24.4135-37.2677C22.6936-39.2663 20.7241-40.1995 18.0309-40.1995C13.2767-40.1995 9.76562-36.7373 9.76562-32.0949C9.76562-29.9877 10.3543-28.2678 12.1543-26.2237L31.8638-3.13106C33.8279-0.851 36.165 0.165596 39.1511 0.165596Z"/>
  </g>
  <g id="Bold-S" transform="matrix(1 0 0 1 2294.43 696)">
   <path d="M37.9395-0.195312C40.7471-0.195312 42.9443-1.26953 44.458-3.54004L79.7852-57.5684C80.8838-59.2041 81.3232-60.7666 81.3232-62.207C81.3232-66.04 78.4424-68.8477 74.4873-68.8477C71.7773-68.8477 70.0928-67.8955 68.4326-65.2832L37.7686-16.7725L22.1191-36.3525C20.6055-38.1836 18.9453-39.0137 16.626-39.0137C12.6709-39.0137 9.76562-36.1572 9.76562-32.2754C9.76562-30.542 10.3027-29.0283 11.7676-27.3193L31.5674-3.24707C33.3252-1.14746 35.3271-0.195312 37.9395-0.195312Z"/>
  </g>
  <g id="Semibold-S" transform="matrix(1 0 0 1 1998.54 696)">
   <path d="M37.1041-0.444141C39.5829-0.444141 41.5313-1.42949 42.8851-3.47783L78.31-58.3326C79.3108-59.8351 79.697-61.2021 79.697-62.4914C79.697-65.8001 77.296-68.1723 73.8919-68.1723C71.5285-68.1723 70.1017-67.3534 68.6548-65.0699L36.9243-14.5952L20.5373-35.7216C19.1658-37.4371 17.7189-38.1961 15.6573-38.1961C12.2532-38.1961 9.76562-35.7573 9.76562-32.3998C9.76562-30.9241 10.2672-29.5526 11.501-28.0747L31.363-3.32705C32.9786-1.35186 34.7495-0.444141 37.1041-0.444141Z"/>
  </g>
  <g id="Medium-S" transform="matrix(1 0 0 1 1702.44 696)">
   <path d="M36.4707-0.632812C38.7002-0.632812 40.46-1.55078 41.6924-3.43066L77.1914-58.9121C78.1182-60.3135 78.4639-61.5322 78.4639-62.707C78.4639-65.6182 76.4268-67.6602 73.4404-67.6602C71.3398-67.6602 70.1084-66.9424 68.8232-64.9082L36.2842-12.9443L19.3379-35.2432C18.0742-36.8711 16.7891-37.5762 14.9229-37.5762C11.9365-37.5762 9.76562-35.4541 9.76562-32.4941C9.76562-31.2139 10.2402-29.9502 11.2988-28.6475L31.208-3.3877C32.7158-1.50684 34.3115-0.632812 36.4707-0.632812Z"/>
  </g>
  <g id="Regular-S" transform="matrix(1 0 0 1 1406.53 696)">
   <path d="M35.6445-0.878906C37.5488-0.878906 39.0625-1.70898 40.1367-3.36914L75.7324-59.668C76.5625-60.9375 76.8555-61.9629 76.8555-62.9883C76.8555-65.3809 75.293-66.9922 72.8516-66.9922C71.0938-66.9922 70.1172-66.4062 69.043-64.6973L35.4492-10.791L17.7734-34.6191C16.6504-36.1328 15.5762-36.7676 13.9648-36.7676C11.5234-36.7676 9.76562-35.0586 9.76562-32.6172C9.76562-31.5918 10.2051-30.4688 11.0352-29.3945L31.0059-3.4668C32.373-1.70898 33.7402-0.878906 35.6445-0.878906Z"/>
  </g>
  <g id="Light-S" transform="matrix(1 0 0 1 1110.9 696)">
   <path d="M33.9492-1.98388C35.3692-1.98388 36.4741-2.60204 37.2759-3.82324L73.8555-61.1968C74.4888-62.1787 74.7061-62.9316 74.7061-63.6846C74.7061-65.502 73.4917-66.75 71.6406-66.75C70.3218-66.75 69.5723-66.3003 68.7856-65.0303L33.7993-9.6255L15.8511-32.5757C15.0156-33.711 14.1987-34.1944 12.9658-34.1944C11.0996-34.1944 9.76562-32.8941 9.76562-31.043C9.76562-30.2598 10.0991-29.4092 10.7476-28.5923L30.4761-3.89062C31.5103-2.57177 32.5142-1.98388 33.9492-1.98388Z"/>
  </g>
  <g id="Thin-S" transform="matrix(1 0 0 1 815.608 696)">
   <path d="M31.7071-3.44529C32.4864-3.44529 33.0508-3.78319 33.4922-4.42382L71.3731-63.2187C71.7461-63.8203 71.8633-64.2129 71.8633-64.6055C71.8633-65.6621 71.1094-66.4297 70.0391-66.4297C69.3008-66.4297 68.8516-66.1602 68.4453-65.4707L31.6172-8.08401L13.3086-29.8731C12.8535-30.5079 12.377-30.7911 11.6445-30.7911C10.5391-30.7911 9.76562-30.0313 9.76562-28.961C9.76562-28.4981 9.95899-28.0078 10.3672-27.5313L29.7754-4.45116C30.3692-3.71287 30.8926-3.44529 31.7071-3.44529Z"/>
  </g>
  <g id="Ultralight-S" transform="matrix(1 0 0 1 519.625 696)">
   <path d="M30.5586-4.19382C31.0098-4.19382 31.2974-4.38816 31.5543-4.73143L70.1016-64.2544C70.3414-64.6611 70.4073-64.8691 70.4073-65.0771C70.4073-65.7441 69.8892-66.2656 69.2188-66.2656C68.7779-66.2656 68.4824-66.0884 68.271-65.6963L30.4996-7.29446L12.0064-28.4888C11.7461-28.8672 11.4439-29.0479 10.9678-29.0479C10.252-29.0479 9.76562-28.565 9.76562-27.8946C9.76562-27.5957 9.88721-27.2901 10.1724-26.9878L29.4165-4.73827C29.7847-4.29734 30.062-4.19382 30.5586-4.19382Z"/>
  </g>
 </g>
</svg>
